<svg width="339px" height="339px" viewBox="0 0 339 339" version="1.1" xmlns="http://www.w3.org/2000/svg" xmlns:xlink="http://www.w3.org/1999/xlink">
    <!-- Generator: Sketch 44 (41411) - http://www.bohemiancoding.com/sketch -->
    <desc>Created with Sketch.</desc>
    <defs></defs>
    <g id="Page-1" stroke="none" stroke-width="1" fill="none" fill-rule="evenodd">
        <g id="Group">
            <circle id="Oval" fill="#FFF357" cx="169.5" cy="169.5" r="169.5"></circle>
            <path d="M111,218 C111,250.5848 137.4152,277 170,277 C202.5848,277 229,250.5848 229,218" id="Oval-3" stroke="#7C6016" stroke-width="10" fill="#7C6016"></path>
            <path d="M34.0061414,88.4636836 C34.0061414,119.912113 66.4747262,128.157609 88.5998785,159.247872 C109.517595,128.34836 143.193626,118.908106 143.193626,88.4636836 C143.193626,73.0049888 130.352702,60.4588097 114.530785,60.4588097 C103.054214,60.4588097 93.1765936,67.0797235 88.5998785,76.6053676 C84.0231943,67.0797235 74.1455737,60.4588097 62.6689665,60.4588097 C46.8470813,60.4588097 34.0061414,73.0049888 34.0061414,88.4636836 Z" id="path7" stroke="#FF0000" stroke-width="18.700001" fill="#FF0000" fill-rule="nonzero"></path>
            <path d="M195.435231,88.4636836 C195.435231,119.912113 227.903815,128.157609 250.028968,159.247872 C270.946684,128.34836 304.622715,118.908106 304.622715,88.4636836 C304.622715,73.0049888 291.781791,60.4588097 275.959874,60.4588097 C264.483303,60.4588097 254.605683,67.0797235 250.028968,76.6053676 C245.452284,67.0797235 235.574663,60.4588097 224.098056,60.4588097 C208.276171,60.4588097 195.435231,73.0049888 195.435231,88.4636836 Z" id="path7" stroke="#FF0000" stroke-width="18.700001" fill="#FF0000" fill-rule="nonzero"></path>
        </g>
    </g>
</svg>
