<svg xmlns="http://www.w3.org/2000/svg" viewBox="0 0 223 97" fill="currentColor"><path fill-rule="nonzero" d="M63.973 17.16c.854-1.195 1.43-2.07 1.728-2.624.3-.555.448-1.045.448-1.472 0-.427-.128-.853-.384-1.28-.256-.427-.725-1.024-1.408-1.792-.682-.683-1.152-1.28-1.408-1.792s-.384-1.195-.384-2.048c0-1.963.555-3.35 1.664-4.16 1.11-.81 2.902-1.216 5.376-1.216h15.488c2.39 0 4.096.448 5.12 1.344 1.024.896 1.536 2.453 1.536 4.672 0 1.365-.34 2.368-1.024 3.008-.682.64-2.26 1.472-4.736 2.496-.597.256-1.237.725-1.92 1.408-.682.683-1.578 1.75-2.688 3.2L63.59 39.688c.854 1.963 1.963 4.16 3.328 6.592a194.663 194.663 0 004.352 7.36c1.536 2.475 3.094 4.8 4.672 6.976 1.58 2.176 3.008 3.99 4.288 5.44 3.84 4.352 7.552 7.53 11.136 9.536 3.584 2.005 7.34 3.008 11.264 3.008a30.91 30.91 0 003.648-.192c1.067-.128 2.22-.384 3.456-.768 1.238-.384 2.624-.981 4.16-1.792 1.536-.81 3.542-1.856 6.016-3.136 1.195-.683 2.56-1.024 4.096-1.024 2.134 0 3.968.832 5.504 2.496 1.536 1.664 2.304 3.648 2.304 5.952 0 2.133-.725 4.181-2.176 6.144-1.45 1.963-3.392 3.67-5.824 5.12-2.432 1.45-5.248 2.624-8.448 3.52-3.2.896-6.549 1.344-10.048 1.344-6.656 0-12.992-1.621-19.008-4.864-6.016-3.243-11.498-8.021-16.448-14.336a124.344 124.344 0 01-4.544-6.016 122.79 122.79 0 01-3.968-6.016c-1.322-2.133-2.688-4.544-4.096-7.232-1.408-2.688-3.05-5.867-4.928-9.536l-1.152-2.304v15.616c4.438 0 6.656 1.963 6.656 5.888 0 1.792-.768 3.413-2.304 4.864L41.701 85.896c-1.706 1.536-3.456 2.304-5.248 2.304-1.792 0-3.328-.619-4.608-1.856-1.28-1.237-1.92-2.752-1.92-4.544 0-.512.022-.96.064-1.344.043-.384.192-.79.448-1.216.256-.427.62-.981 1.088-1.664.47-.683 1.131-1.536 1.984-2.56.94-1.195 1.707-2.773 2.304-4.736.598-1.963.896-4.053.896-6.272v-42.24c0-2.133-.106-3.69-.32-4.672a4.932 4.932 0 00-1.344-2.496c-1.45-1.707-3.882-2.56-7.296-2.56-3.669 0-6.698 1.13-9.088 3.392-2.389 2.261-3.584 5.099-3.584 8.512 0 2.304.534 4.16 1.6 5.568 1.067 1.408 2.454 2.112 4.16 2.112.683 0 1.216-.064 1.6-.192.384-.128 1.131-.448 2.24-.96 1.11-.597 2.176-.896 3.2-.896 1.878 0 3.392.64 4.544 1.92 1.152 1.28 1.728 2.987 1.728 5.12a8.776 8.776 0 01-1.088 4.288c-.725 1.323-1.728 2.496-3.008 3.52s-2.773 1.835-4.48 2.432a16.155 16.155 0 01-5.376.896c-2.816 0-5.418-.555-7.808-1.664a19.307 19.307 0 01-6.208-4.544c-1.749-1.92-3.114-4.203-4.096-6.848-.98-2.645-1.472-5.504-1.472-8.576 0-3.84.64-7.339 1.92-10.496 1.28-3.157 3.072-5.888 5.376-8.192 2.304-2.304 5.056-4.075 8.256-5.312S22.928.264 26.853.264c.94 0 2.22.043 3.84.128 1.622.085 3.456.213 5.504.384 1.024.085 1.878.15 2.56.192.683.043 1.28.085 1.792.128s.982.064 1.408.064h1.536c2.475 0 4.95-.128 7.424-.384.683-.085 1.344-.15 1.984-.192.64-.043 1.131-.064 1.472-.064 1.792 0 3.243.512 4.352 1.536 1.11 1.024 1.664 2.39 1.664 4.096 0 1.45-.384 2.603-1.152 3.456-.768.853-2.048 1.493-3.84 1.92-1.706.427-2.837 1.088-3.392 1.984-.554.896-.832 2.453-.832 4.672v15.232l12.8-16.256zm30.252 8.928c1.706-3.072 13.69-5.355 15.952-6.848 2.261-1.493 4.928-2.24 8-2.24 8.106 0 12.16 4.523 12.16 13.568v16.256c3.754.17 5.632 1.92 5.632 5.248 0 2.048-.854 3.712-2.56 4.992L123.553 65c-.939.768-1.707 1.301-2.304 1.6a4.234 4.234 0 01-1.92.448c-1.536 0-2.859-.533-3.968-1.6-1.11-1.067-1.664-2.325-1.664-3.776 0-1.195.554-2.603 1.664-4.224.938-1.28 1.536-2.41 1.792-3.392.256-.981.384-2.624.384-4.928V38.76c0-5.461-1.75-8.192-5.248-8.192-1.366 0-2.71.533-4.032 1.6a10.353 10.353 0 00-3.008 3.904c-.171.427-.342 1.067-.512 1.92-.171.853-.32 1.792-.448 2.816a74.939 74.939 0 00-.32 3.072 34.12 34.12 0 00-.128 2.816c0 2.73.277 4.63.832 5.696.554 1.067 1.728 1.984 3.52 2.752 2.048.939 3.072 2.432 3.072 4.48 0 3.584-2.176 5.376-6.528 5.376H91.169c-4.523 0-6.784-1.664-6.784-4.992 0-1.28.277-2.24.832-2.88.554-.64 1.685-1.387 3.392-2.24 1.109-.512 1.813-1.173 2.112-1.984.298-.81.448-2.325.448-4.544V33.512H89.76c-3.414 0-5.12-1.621-5.12-4.864 0-.853.234-1.707.704-2.56A5.735 5.735 0 0187.2 24.04l8.32-6.016c.938-.683 2.218-1.024 3.84-1.024 1.45 0 2.624.512 3.52 1.536.896 1.024 1.344 2.39 1.344 4.096l-10 3.456zM162.54 17c2.987 0 5.781.64 8.384 1.92a21.783 21.783 0 016.784 5.184c1.92 2.176 3.435 4.757 4.544 7.744 1.11 2.987 1.664 6.187 1.664 9.6 0 3.499-.555 6.741-1.664 9.728-1.11 2.987-2.624 5.568-4.544 7.744a21.783 21.783 0 01-6.784 5.184c-2.603 1.28-5.397 1.92-8.384 1.92-3.072 0-5.93-.64-8.576-1.92a21.139 21.139 0 01-6.848-5.248c-1.92-2.219-3.413-4.843-4.48-7.872-1.067-3.03-1.6-6.293-1.6-9.792 0-3.072.597-6.187 1.792-9.344 1.195-3.157 2.773-5.845 4.736-8.064 3.84-4.523 8.832-6.784 14.976-6.784zm0 11.136c-2.475 0-4.544 1.237-6.208 3.712-1.664 2.475-2.496 5.632-2.496 9.472 0 4.01.81 7.275 2.432 9.792 1.621 2.517 3.712 3.776 6.272 3.776 2.475 0 4.523-1.259 6.144-3.776 1.621-2.517 2.432-5.739 2.432-9.664 0-3.84-.81-7.019-2.432-9.536-1.621-2.517-3.67-3.776-6.144-3.776zm45.9 19.968c0 2.56.767 3.84 2.303 3.84.427 0 .811-.107 1.152-.32.342-.213.854-.661 1.536-1.344 1.28-1.45 2.688-2.176 4.224-2.176 1.451 0 2.688.555 3.712 1.664 1.024 1.11 1.536 2.432 1.536 3.968a9.779 9.779 0 01-1.088 4.544 11.21 11.21 0 01-3.008 3.648c-1.28 1.024-2.816 1.813-4.608 2.368-1.792.555-3.712.832-5.76.832-4.437 0-7.765-1.28-9.984-3.84-.597-.683-1.066-1.323-1.408-1.92-.341-.597-.618-1.301-.832-2.112-.213-.81-.362-1.77-.448-2.88-.085-1.11-.128-2.475-.128-4.096V28.52h-3.072c-2.218 0-3.818-.363-4.8-1.088-.981-.725-1.472-1.941-1.472-3.648 0-.683.043-1.259.128-1.728.086-.47.299-.96.64-1.472.342-.512.854-1.088 1.536-1.728a88.886 88.886 0 012.816-2.496 15.878 15.878 0 002.624-2.752c.726-.981 1.814-2.667 3.264-5.056.939-1.621 1.878-2.73 2.816-3.328.939-.597 2.048-.896 3.328-.896 3.328 0 4.992 2.09 4.992 6.272v7.424h7.424c4.267 0 6.4 1.835 6.4 5.504 0 3.328-2.133 4.992-6.4 4.992h-7.424v19.584z"/></svg>
