<?xml version="1.0" encoding="UTF-8"?>
<svg width="233px" height="97px" viewBox="0 0 233 97" version="1.1" xmlns="http://www.w3.org/2000/svg" xmlns:xlink="http://www.w3.org/1999/xlink">
    <!-- Generator: Sketch 57.1 (83088) - https://sketch.com -->
    <title>Knot</title>
    <desc>Created with Sketch.</desc>
    <g id="Page-1" stroke="none" stroke-width="1" fill="none" fill-rule="evenodd">
        <path d="M63.9734118,17.16 C64.8267494,15.9653274 65.4027436,15.0906694 65.7014118,14.536 C66.0000799,13.9813306 66.1494118,13.4906688 66.1494118,13.064 C66.1494118,12.6373312 66.021413,12.2106688 65.7654118,11.784 C65.5094105,11.3573312 65.0400818,10.7600038 64.3574118,9.992 C63.6747417,9.30932992 63.205413,8.71200256 62.9494118,8.2 C62.6934105,7.68799744 62.5654118,7.0053376 62.5654118,6.152 C62.5654118,4.18932352 63.1200729,2.80267072 64.2294118,1.992 C65.3387506,1.18132928 67.1307327,0.776 69.6054118,0.776 L85.0934118,0.776 C87.482757,0.776 89.1894066,1.22399552 90.2134118,2.12 C91.2374169,3.01600448 91.7494118,4.57332224 91.7494118,6.792 C91.7494118,8.15734016 91.4080818,9.1599968 90.7254118,9.8 C90.0427417,10.4400032 88.4640908,11.2719949 85.9894118,12.296 C85.3920754,12.5520013 84.7520818,13.0213299 84.0694118,13.704 C83.3867417,14.3866701 82.4907506,15.4533261 81.3814118,16.904 L63.5894118,39.688 C64.4427494,41.6506765 65.5520716,43.8479878 66.9174118,46.28 C68.2827519,48.7120122 69.7334041,51.165321 71.2694118,53.64 C72.8054194,56.114679 74.3627372,58.4399891 75.9414118,60.616 C77.5200863,62.7920109 78.9494054,64.6053261 80.2294118,66.056 C84.069431,70.4080218 87.7813938,73.5866566 91.3654118,75.592 C94.9494297,77.5973434 98.7040588,78.6 102.629412,78.6 C103.994752,78.6 105.21074,78.5360006 106.277412,78.408 C107.344084,78.2799994 108.496072,78.0240019 109.733412,77.64 C110.970751,77.2559981 112.357404,76.6586707 113.893412,75.848 C115.429419,75.0373293 117.434733,73.9920064 119.909412,72.712 C121.104084,72.0293299 122.469404,71.688 124.005412,71.688 C126.138756,71.688 127.973404,72.5199917 129.509412,74.184 C131.045419,75.8480083 131.813412,77.8319885 131.813412,80.136 C131.813412,82.269344 131.088086,84.3173235 129.637412,86.28 C128.186738,88.2426765 126.245424,89.9493261 123.813412,91.4 C121.3814,92.8506739 118.565428,94.0239955 115.365412,94.92 C112.165396,95.8160045 108.816096,96.264 105.317412,96.264 C98.6613785,96.264 92.3254418,94.6426829 86.3094118,91.4 C80.2933817,88.1573171 74.8107698,83.3786982 69.8614118,77.064 C68.1547366,74.930656 66.640085,72.9253427 65.3174118,71.048 C63.9947385,69.1706573 62.672085,67.165344 61.3494118,65.032 C60.0267385,62.898656 58.6614188,60.4880134 57.2534118,57.8 C55.8454047,55.1119866 54.2027545,51.9333517 52.3254118,48.264 L51.1734118,45.96 L51.1734118,61.576 C55.6107673,61.576 57.8294118,63.538647 57.8294118,67.464 C57.8294118,69.256009 57.0614194,70.8773261 55.5254118,72.328 L41.7014118,85.896 C39.9947366,87.4320077 38.2454207,88.2 36.4534118,88.2 C34.6614028,88.2 33.1254182,87.5813395 31.8454118,86.344 C30.5654054,85.1066605 29.9254118,83.592009 29.9254118,81.8 C29.9254118,81.2879974 29.9467449,80.8400019 29.9894118,80.456 C30.0320786,80.0719981 30.1814105,79.6666688 30.4374118,79.24 C30.693413,78.8133312 31.0560761,78.2586701 31.5254118,77.576 C31.9947474,76.8933299 32.6560742,76.0400051 33.5094118,75.016 C34.4480831,73.8213274 35.2160754,72.2426765 35.8134118,70.28 C36.4107481,68.3173235 36.7094118,66.2266778 36.7094118,64.008 L36.7094118,21.768 C36.7094118,19.634656 36.6027462,18.0773382 36.3894118,17.096 C36.1760774,16.1146618 35.7280818,15.2826701 35.0454118,14.6 C33.5947378,12.8933248 31.1627622,12.04 27.7494118,12.04 C24.0800601,12.04 21.050757,13.1706554 18.6614118,15.432 C16.2720665,17.6933446 15.0774118,20.5306496 15.0774118,23.944 C15.0774118,26.2480115 15.6107398,28.103993 16.6774118,29.512 C17.7440838,30.920007 19.1307366,31.624 20.8374118,31.624 C21.5200818,31.624 22.0534098,31.5600006 22.4374118,31.432 C22.8214137,31.3039994 23.5680729,30.9840026 24.6774118,30.472 C25.7867506,29.8746637 26.8534066,29.576 27.8774118,29.576 C29.7547545,29.576 31.269406,30.2159936 32.4214118,31.496 C33.5734175,32.7760064 34.1494118,34.482656 34.1494118,36.616 C34.1494118,38.1520077 33.7867487,39.5813267 33.0614118,40.904 C32.3360748,42.2266733 31.3334182,43.3999949 30.0534118,44.424 C28.7734054,45.4480051 27.280087,46.2586637 25.5734118,46.856 C23.8667366,47.4533363 22.0747545,47.752 20.1974118,47.752 C17.3813977,47.752 14.778757,47.1973389 12.3894118,46.088 C10.0000665,44.9786611 7.93075384,43.4640096 6.18141176,41.544 C4.43206968,39.6239904 3.06675,37.3413466 2.08541176,34.696 C1.10407352,32.0506534 0.613411765,29.1920154 0.613411765,26.12 C0.613411765,22.2799808 1.25340536,18.7813491 2.53341176,15.624 C3.81341816,12.4666509 5.60540024,9.73601152 7.90941176,7.432 C10.2134233,5.12798848 12.9653958,3.35733952 16.1654118,2.12 C19.3654278,0.88266048 22.9280588,0.264 26.8534118,0.264 C27.7920831,0.264 29.0720703,0.30666624 30.6934118,0.392 C32.3147532,0.47733376 34.1494015,0.60533248 36.1974118,0.776 C37.2214169,0.86133376 38.0747417,0.92533312 38.7574118,0.968 C39.4400818,1.01066688 40.0374092,1.05333312 40.5494118,1.096 C41.0614143,1.13866688 41.530743,1.16 41.9574118,1.16 L43.4934118,1.16 C45.9680908,1.16 48.4427327,1.03200128 50.9174118,0.776 C51.6000818,0.69066624 52.2614086,0.62666688 52.9014118,0.584 C53.541415,0.54133312 54.0320767,0.52 54.3734118,0.52 C56.1654207,0.52 57.6160729,1.03199488 58.7254118,2.056 C59.8347506,3.08000512 60.3894118,4.4453248 60.3894118,6.152 C60.3894118,7.60267392 60.0054156,8.7546624 59.2374118,9.608 C58.4694079,10.4613376 57.1894207,11.1013312 55.3974118,11.528 C53.6907366,11.9546688 52.5600812,12.6159955 52.0054118,13.512 C51.4507423,14.4080045 51.1734118,15.9653222 51.1734118,18.184 L51.1734118,33.416 L63.9734118,17.16 Z M114.224706,30.088 C115.931381,27.0159846 117.915361,24.7333408 120.176706,23.24 C122.438051,21.7466592 125.104691,21 128.176706,21 C136.283413,21 140.336706,25.5226214 140.336706,34.568 L140.336706,50.824 C144.091391,50.9946675 145.968706,52.7439834 145.968706,56.072 C145.968706,58.1200102 145.115381,59.7839936 143.408706,61.064 L133.552706,69 C132.614035,69.7680038 131.846042,70.3013318 131.248706,70.6 C130.65137,70.8986682 130.011376,71.048 129.328706,71.048 C127.792698,71.048 126.470045,70.514672 125.360706,69.448 C124.251367,68.381328 123.696706,67.1226739 123.696706,65.672 C123.696706,64.4773274 124.251367,63.0693414 125.360706,61.448 C126.299377,60.1679936 126.896705,59.0373382 127.152706,58.056 C127.408707,57.0746618 127.536706,55.4320115 127.536706,53.128 L127.536706,42.76 C127.536706,37.2986394 125.78739,34.568 122.288706,34.568 C120.923366,34.568 119.579379,35.101328 118.256706,36.168 C116.934033,37.234672 115.931376,38.5359923 115.248706,40.072 C115.078038,40.4986688 114.907373,41.1386624 114.736706,41.992 C114.566038,42.8453376 114.416707,43.7839949 114.288706,44.808 C114.160705,45.8320051 114.05404,46.8559949 113.968706,47.88 C113.883372,48.9040051 113.840706,49.8426624 113.840706,50.696 C113.840706,53.4266803 114.118036,55.325328 114.672706,56.392 C115.227375,57.458672 116.400697,58.3759962 118.192706,59.144 C120.240716,60.0826714 121.264706,61.5759898 121.264706,63.624 C121.264706,67.2080179 119.088728,69 114.736706,69 L101.168706,69 C96.6460166,69 94.3847059,67.3360166 94.3847059,64.008 C94.3847059,62.7279936 94.6620364,61.7680032 95.2167059,61.128 C95.7713753,60.4879968 96.9020307,59.7413376 98.6087059,58.888 C99.7180448,58.3759974 100.422038,57.7146707 100.720706,56.904 C101.019374,56.0933293 101.168706,54.5786778 101.168706,52.36 L101.168706,37.512 L99.7607059,37.512 C96.3473555,37.512 94.6407059,35.8906829 94.6407059,32.648 C94.6407059,31.7946624 94.8753702,30.9413376 95.3447059,30.088 C95.8140416,29.2346624 96.432702,28.5520026 97.2007059,28.04 L105.520706,22.024 C106.459377,21.3413299 107.739364,21 109.360706,21 C110.81138,21 111.984701,21.5119949 112.880706,22.536 C113.77671,23.5600051 114.224706,24.9253248 114.224706,26.632 L114.224706,30.088 Z M172.54,21 C175.526682,21 178.32132,21.6399936 180.924,22.92 C183.52668,24.2000064 185.78799,25.9279891 187.708,28.104 C189.62801,30.2800109 191.142661,32.8613184 192.252,35.848 C193.361339,38.8346816 193.916,42.0346496 193.916,45.448 C193.916,48.9466842 193.361339,52.1893184 192.252,55.176 C191.142661,58.1626816 189.62801,60.7439891 187.708,62.92 C185.78799,65.0960109 183.52668,66.8239936 180.924,68.104 C178.32132,69.3840064 175.526682,70.024 172.54,70.024 C169.467985,70.024 166.609347,69.3840064 163.964,68.104 C161.318653,66.8239936 159.036,65.0746778 157.116,62.856 C155.19599,60.6373222 153.702672,58.0133485 152.636,54.984 C151.569328,51.9546515 151.036,48.6906842 151.036,45.192 C151.036,42.1199846 151.633327,39.0053491 152.828,35.848 C154.022673,32.6906509 155.601324,30.0026778 157.564,27.784 C161.404019,23.2613107 166.395969,21 172.54,21 Z M172.54,32.136 C170.065321,32.136 167.996008,33.373321 166.332,35.848 C164.667992,38.322679 163.836,41.4799808 163.836,45.32 C163.836,49.3306867 164.646659,52.5946541 166.268,55.112 C167.889341,57.6293459 169.979987,58.888 172.54,58.888 C175.014679,58.888 177.062659,57.6293459 178.684,55.112 C180.305341,52.5946541 181.116,49.373353 181.116,45.448 C181.116,41.6079808 180.305341,38.4293459 178.684,35.912 C177.062659,33.3946541 175.014679,32.136 172.54,32.136 Z M218.439294,52.104 C218.439294,54.6640128 219.207286,55.944 220.743294,55.944 C221.169963,55.944 221.553959,55.8373344 221.895294,55.624 C222.236629,55.4106656 222.748624,54.9626701 223.431294,54.28 C224.711301,52.8293261 226.119286,52.104 227.655294,52.104 C229.105968,52.104 230.343289,52.6586611 231.367294,53.768 C232.391299,54.8773389 232.903294,56.1999923 232.903294,57.736 C232.903294,59.3573414 232.540631,60.871993 231.815294,62.28 C231.089957,63.688007 230.087301,64.9039949 228.807294,65.928 C227.527288,66.9520051 225.991303,67.7413306 224.199294,68.296 C222.407285,68.8506694 220.487304,69.128 218.439294,69.128 C214.001939,69.128 210.673972,67.8480128 208.455294,65.288 C207.857958,64.6053299 207.388629,63.9653363 207.047294,63.368 C206.705959,62.7706637 206.428629,62.0666707 206.215294,61.256 C206.00196,60.4453293 205.852628,59.4853389 205.767294,58.376 C205.68196,57.2666611 205.639294,55.9013414 205.639294,54.28 L205.639294,32.52 L202.567294,32.52 C200.348616,32.52 198.748632,32.157337 197.767294,31.432 C196.785956,30.706663 196.295294,29.4906752 196.295294,27.784 C196.295294,27.1013299 196.33796,26.5253357 196.423294,26.056 C196.508628,25.5866643 196.721959,25.0960026 197.063294,24.584 C197.404629,24.0719974 197.916624,23.4960032 198.599294,22.856 C199.281964,22.2159968 200.220621,21.3840051 201.415294,20.36 C202.439299,19.5066624 203.313957,18.5893382 204.039294,17.608 C204.764631,16.6266618 205.85262,14.9413453 207.303294,12.552 C208.241965,10.9306586 209.180623,9.82133632 210.119294,9.224 C211.057965,8.62666368 212.167288,8.328 213.447294,8.328 C216.775311,8.328 218.439294,10.4186458 218.439294,14.6 L218.439294,22.024 L225.863294,22.024 C230.129982,22.024 232.263294,23.8586483 232.263294,27.528 C232.263294,30.8560166 230.129982,32.52 225.863294,32.52 L218.439294,32.52 L218.439294,52.104 Z" id="Knot" fill="#FFFFFF" fill-rule="nonzero"></path>
    </g>
</svg>