<?xml version="1.0" encoding="utf-8"?>
<!-- Generator: Adobe Illustrator 22.1.0, SVG Export Plug-In . SVG Version: 6.00 Build 0)  -->
<svg version="1.1" id="Light" xmlns="http://www.w3.org/2000/svg" xmlns:xlink="http://www.w3.org/1999/xlink" x="0px" y="0px"
	 viewBox="0 0 24 24" style="enable-background:new 0 0 24 24;" xml:space="preserve" fill="#3d4852">
<g>
	<title>multiple-man-woman-2</title>
	<path d="M18.998,22.496c-0.276,0-0.5-0.224-0.5-0.5s0.224-0.5,0.5-0.5h4V19.11c0-1.033-0.622-1.946-1.583-2.324l-4.12-1.832
		c-0.18-0.081-0.297-0.26-0.297-0.457v-2.5c0-0.215,0.137-0.406,0.342-0.474c0.043-0.016,1.158-0.437,1.158-2.526
		c0-0.273,0.221-0.496,0.493-0.5c0-0.004,0.015-0.02,0.034-0.054c0.058-0.105,0.093-0.272,0.093-0.446
		c0-0.276-0.09-0.475-0.138-0.504c-0.002,0-0.005,0-0.007,0c-0.255,0-0.475-0.223-0.475-0.496c0-0.136,0.044-0.275,0.142-0.58
		c0.21-0.658,0.603-1.881,0.373-2.799c-0.061-0.243-0.257-0.461-0.583-0.647c-0.528-0.302-1.323-0.475-2.18-0.475
		c-0.545,0-1.076,0.072-1.536,0.208c-0.046,0.014-0.094,0.021-0.141,0.021c-0.22,0-0.417-0.147-0.48-0.358
		c-0.078-0.265,0.073-0.543,0.338-0.622c0.554-0.164,1.184-0.25,1.822-0.25c1.022,0,1.997,0.222,2.674,0.608
		c0.564,0.322,0.929,0.762,1.057,1.273c0.296,1.184-0.143,2.572-0.385,3.328c0.329,0.256,0.52,0.721,0.52,1.293
		c0,0.631-0.237,1.137-0.63,1.367c-0.105,1.838-0.989,2.634-1.49,2.94v1.868l3.803,1.692c1.33,0.524,2.197,1.8,2.197,3.247v2.886
		c0,0.276-0.224,0.5-0.5,0.5H18.998z"/>
	<path d="M0.498,22.496c-0.276,0-0.5-0.224-0.5-0.5v-2.018c-0.105-1.483,0.6-2.956,1.842-3.826c1.202-0.772,2.475-1.415,3.794-1.916
		c0.194-0.061,0.326-0.202,0.364-0.376v-0.211c-0.099,0.004-0.191,0.006-0.28,0.006c-1.36,0-2.707-0.358-3.896-1.034
		c-0.061-0.037-0.111-0.073-0.157-0.113c-0.2-0.175-0.32-0.419-0.337-0.685c-0.017-0.267,0.07-0.524,0.247-0.725
		c0.457-0.517,0.748-1.218,0.888-3.277c0.137-2.03,0.876-3.673,2.138-4.75c1.043-0.89,2.427-1.38,3.898-1.38s2.854,0.49,3.898,1.38
		c1.262,1.077,2.001,2.719,2.138,4.75c0.139,2.053,0.431,2.756,0.888,3.277c0.039,0.044,0.075,0.094,0.106,0.145
		c0.283,0.474,0.129,1.089-0.344,1.372c-1.191,0.678-2.537,1.034-3.898,1.034c-0.096,0-0.192-0.002-0.288-0.005v0.214
		c0.036,0.171,0.166,0.314,0.334,0.366c0.006,0.002,0.028,0.009,0.034,0.012c1.315,0.499,2.586,1.14,3.773,1.903
		c1.257,0.878,1.966,2.36,1.857,3.874l0.001,1.982c0,0.276-0.224,0.5-0.5,0.5H0.498z M15.998,21.496v-1.518
		c0.084-1.193-0.459-2.339-1.415-3.007c-1.114-0.715-2.317-1.321-3.569-1.798c-0.526-0.166-0.927-0.637-1.01-1.197
		C10,13.952,9.998,13.927,9.998,13.903v-1.555c0-0.422,0.288-0.741,0.571-0.998c0.576-0.488,0.913-1.189,0.93-1.929l0-1.702
		c-1.136-0.251-2.165-0.805-3-1.615c-0.835,0.81-1.864,1.364-3,1.615v1.714c0.016,0.731,0.351,1.428,0.917,1.906
		c0.194,0.177,0.583,0.532,0.583,1.01v1.556c0,0.025-0.002,0.049-0.005,0.074C6.91,14.54,6.504,15.013,5.96,15.181
		c-1.23,0.469-2.433,1.076-3.562,1.802c-0.942,0.66-1.482,1.796-1.401,2.96l0.001,1.553H15.998z M10.997,12.644
		c0.095,0.004,0.189,0.006,0.283,0.006c1.192,0,2.367-0.311,3.4-0.898c-0.608-0.676-0.985-1.528-1.144-3.864
		c-0.169-2.513-1.582-5.198-5.038-5.198c-3.456,0-4.868,2.685-5.038,5.198c-0.159,2.343-0.536,3.193-1.135,3.87
		c1.026,0.582,2.2,0.891,3.392,0.891c0.093,0,0.187-0.002,0.281-0.006v-0.297c0,0,0,0.001,0,0.001c-0.005,0-0.044-0.077-0.243-0.26
		c-0.773-0.652-1.233-1.619-1.256-2.646l0-2.14c0-0.25,0.179-0.458,0.426-0.494C6.165,6.622,7.3,5.997,8.12,5.049
		C8.213,4.941,8.351,4.88,8.498,4.88s0.285,0.062,0.378,0.169c0.821,0.948,1.956,1.573,3.196,1.76
		c0.247,0.037,0.426,0.245,0.426,0.494v2.129c-0.023,1.036-0.486,2.007-1.27,2.67c-0.197,0.18-0.228,0.255-0.232,0.268
		L10.997,12.644z"/>
</g>
</svg>
